<svg version="1.1" viewBox="0.0 0.0 1000.0 900.0" fill="none" stroke="none" stroke-linecap="square" stroke-miterlimit="10" xmlns:xlink="http://www.w3.org/1999/xlink" xmlns="http://www.w3.org/2000/svg"><clipPath id="g641ae008b2_0_103.0"><path d="m0 0l1000.0 0l0 900.0l-1000.0 0l0 -900.0z" clip-rule="nonzero"/></clipPath><g clip-path="url(#g641ae008b2_0_103.0)"><path fill="#000000" fill-opacity="0.0" d="m0 0l1000.0 0l0 900.0l-1000.0 0z" fill-rule="evenodd"/><path fill="#000000" fill-opacity="0.0" d="m350.14856 -26.844866c10.708649 0 16.062988 0.023622513 21.417328 0.04724312c5.354309 0.023622513 10.708649 0.047245026 21.417297 0.047245026" fill-rule="evenodd"/><path stroke="#000000" stroke-width="2.0" stroke-linejoin="round" stroke-linecap="butt" d="m350.14853 -26.844866c10.708679 0 16.062988 0.023622513 21.417328 0.047245026c2.677185 0.011810303 5.3543396 0.023622513 8.700806 0.03248024l0.7165222 0.0013694763" fill-rule="evenodd"/><path fill="#000000" stroke="#000000" stroke-width="2.0" stroke-linecap="butt" d="m380.9795 -23.46031l9.079895 -3.2933311l-9.07251 -3.3135948z" fill-rule="evenodd"/><path fill="#000000" fill-opacity="0.0" d="m327.2969 792.68243l0 0c-8.903412 0 -16.121063 -7.2176514 -16.121063 -16.121033l0 -738.1201c0 -4.2755737 1.6984863 -8.376026 4.7217712 -11.399311c3.023285 -3.023285 7.1237183 -4.7217484 11.399292 -4.7217484l64.4823 0c8.903412 0 16.121063 7.2176437 16.121063 16.12106l0 738.1201c0 8.903381 -7.2176514 16.121033 -16.121063 16.121033z" fill-rule="evenodd"/><path stroke="#ff0000" stroke-width="3.0" stroke-linejoin="round" stroke-linecap="butt" stroke-dasharray="3.0,9.0" d="m327.2969 792.68243l0 0c-8.903412 0 -16.121063 -7.2176514 -16.121063 -16.121033l0 -738.1201c0 -4.2755737 1.6984863 -8.376026 4.7217712 -11.399311c3.023285 -3.023285 7.1237183 -4.7217484 11.399292 -4.7217484l64.4823 0c8.903412 0 16.121063 7.2176437 16.121063 16.12106l0 738.1201c0 8.903381 -7.2176514 16.121033 -16.121063 16.121033z" fill-rule="evenodd"/><path fill="#000000" fill-opacity="0.0" d="m566.96826 407.1042c15.484436 0 23.224854 0.01574707 30.968933 0.03149414c7.7440796 0.01574707 15.491882 0.03149414 30.983826 0.03149414" fill-rule="evenodd"/><path stroke="#000000" stroke-width="2.0" stroke-linejoin="round" stroke-linecap="butt" d="m566.96826 407.10416c15.484436 0 23.224792 0.01574707 30.968933 0.03149414c3.8720093 0.007873535 7.744995 0.01574707 12.586487 0.02166748l6.397339 0.0056152344" fill-rule="evenodd"/><path fill="#000000" stroke="#000000" stroke-width="2.0" stroke-linecap="butt" d="m616.91986 410.4664l9.077332 -3.3002625l-9.075012 -3.3066711z" fill-rule="evenodd"/><path fill="#000000" fill-opacity="0.0" d="m697.316 407.13904c15.485107 0 23.226135 0.01574707 30.970215 0.03149414c7.7440796 0.01574707 15.491272 0.03149414 30.982544 0.03149414" fill-rule="evenodd"/><path stroke="#000000" stroke-width="2.0" stroke-linejoin="round" stroke-linecap="butt" d="m697.31604 407.13904c15.485046 0 23.226013 0.01574707 30.970154 0.03149414c3.8720093 0.007873535 7.744812 0.01574707 12.586121 0.021636963l6.3964844 0.0056152344" fill-rule="evenodd"/><path fill="#000000" stroke="#000000" stroke-width="2.0" stroke-linecap="butt" d="m747.26764 410.50128l9.077332 -3.300293l-9.075012 -3.3066406z" fill-rule="evenodd"/><path fill="#93c47d" fill-opacity="0.6983" d="m466.08633 560.805l0 -307.4016l100.88193 0l0 307.4016z" fill-rule="evenodd"/><path fill="#8e7cc3" fill-opacity="0.6927" d="m161.62703 243.9992l0 -196.53543l100.88188 0l0 196.53543z" fill-rule="evenodd"/><path fill="#e06666" fill-opacity="0.6927" d="m161.62703 560.8391l0 -307.4016l100.88188 0l0 307.4016z" fill-rule="evenodd"/><path fill="#f1c232" fill-opacity="0.6872" d="m161.62703 877.679l0 -307.4016l100.88188 0l0 307.4016z" fill-rule="evenodd"/><path fill="#ffffff" d="m172.50893 785.1514l79.1181 0l0 79.1181l-79.1181 0z" fill-rule="evenodd"/><path stroke="#000000" stroke-width="2.0" stroke-linejoin="round" stroke-linecap="butt" d="m172.50893 785.1514l79.1181 0l0 79.1181l-79.1181 0z" fill-rule="evenodd"/><path fill="#000000" d="m213.16794 842.3686q-2.59375 0 -4.703125 -0.953125q-2.109375 -0.96875 -3.578125 -2.8125q-1.453125 -1.859375 -2.28125 -4.546875q-0.8125 -2.6875 -0.8125 -6.1875q0 -4.796875 1.046875 -8.109375q1.0625 -3.3125 2.8125 -5.375q1.765625 -2.0625 4.03125 -2.953125q2.28125 -0.890625 4.78125 -0.890625q2.59375 0 4.46875 0.828125q1.875 0.8125 3.359375 2.15625l-1.296875 1.4375q-1.296875 -1.25 -2.984375 -1.890625q-1.671875 -0.65625 -3.546875 -0.65625q-2.109375 0 -4.015625 0.796875q-1.890625 0.78125 -3.328125 2.59375q-1.4375 1.796875 -2.3125 4.671875q-0.859375 2.875 -0.859375 7.109375q2.015625 -2.015625 4.375 -3.171875q2.359375 -1.15625 5.046875 -1.15625q4.40625 0 7.0 2.421875q2.59375 2.421875 2.59375 7.078125q0 2.125 -0.796875 3.875q-0.78125 1.75 -2.125 3.03125q-1.34375 1.265625 -3.125 1.984375q-1.78125 0.71875 -3.75 0.71875zm0.09375 -1.828125q1.640625 0 3.0 -0.59375q1.375 -0.609375 2.375 -1.65625q1.015625 -1.0625 1.59375 -2.46875q0.578125 -1.421875 0.578125 -3.0625q0 -3.640625 -1.921875 -5.65625q-1.921875 -2.015625 -5.8125 -2.015625q-1.96875 0 -4.375 1.0625q-2.390625 1.046875 -4.6875 3.59375q0.1875 2.453125 0.828125 4.453125q0.65625 1.984375 1.78125 3.40625q1.125 1.40625 2.78125 2.171875q1.65625 0.765625 3.859375 0.765625z" fill-rule="nonzero"/><path fill="#ffffff" d="m172.50893 684.4198l79.1181 0l0 79.1181l-79.1181 0z" fill-rule="evenodd"/><path stroke="#000000" stroke-width="2.0" stroke-linejoin="round" stroke-linecap="butt" d="m172.50893 684.4198l79.1181 0l0 79.1181l-79.1181 0z" fill-rule="evenodd"/><path fill="#000000" d="m201.60544 741.0589l0 -1.34375q4.21875 -3.84375 7.40625 -6.859375q3.203125 -3.03125 5.28125 -5.546875q2.09375 -2.515625 3.140625 -4.65625q1.0625 -2.140625 1.0625 -4.203125q0 -1.4375 -0.4375 -2.6875q-0.421875 -1.25 -1.359375 -2.15625q-0.9375 -0.921875 -2.375 -1.4375q-1.4375 -0.53125 -3.40625 -0.53125q-2.359375 0 -4.421875 1.15625q-2.0625 1.140625 -3.640625 2.875l-1.390625 -1.34375q1.921875 -1.921875 4.21875 -3.21875q2.296875 -1.296875 5.421875 -1.296875q4.515625 0 7.0 2.359375q2.5 2.34375 2.5 6.234375q0 2.296875 -1.109375 4.578125q-1.09375 2.28125 -3.140625 4.8125q-2.03125 2.515625 -4.96875 5.375q-2.921875 2.84375 -6.5625 6.203125q1.484375 -0.09375 2.890625 -0.15625q1.421875 -0.078125 2.859375 -0.078125l11.765625 0l0 1.921875l-20.734375 0z" fill-rule="nonzero"/><path fill="#ffffff" d="m172.50893 583.6869l79.1181 0l0 79.1181l-79.1181 0z" fill-rule="evenodd"/><path stroke="#000000" stroke-width="2.0" stroke-linejoin="round" stroke-linecap="butt" d="m172.50893 583.6869l79.1181 0l0 79.1181l-79.1181 0z" fill-rule="evenodd"/><path fill="#000000" d="m202.85544 640.3259l0 -1.875l9.171875 0l0 -25.4375l-6.875 0l0 -1.4375q2.453125 -0.34375 4.25 -0.8125q1.796875 -0.484375 3.140625 -1.109375l1.59375 0l0 28.796875l8.640625 0l0 1.875l-19.921875 0z" fill-rule="nonzero"/><path fill="#ffffff" d="m172.50893 470.55502l79.1181 0l0 79.11807l-79.1181 0z" fill-rule="evenodd"/><path stroke="#000000" stroke-width="2.0" stroke-linejoin="round" stroke-linecap="butt" d="m172.50893 470.55502l79.1181 0l0 79.11807l-79.1181 0z" fill-rule="evenodd"/><path fill="#000000" d="m188.45541 527.1941l0 -1.875l9.171875 0l0 -25.43753l-6.875 0l0 -1.4375q2.453125 -0.34375 4.25 -0.8125q1.796875 -0.484375 3.140625 -1.109375l1.59375 0l0 28.796906l8.640625 0l0 1.875l-19.921875 0zm28.800064 0l0 -1.875l9.171875 0l0 -25.43753l-6.875 0l0 -1.4375q2.453125 -0.34375 4.25 -0.8125q1.796875 -0.484375 3.140625 -1.109375l1.59375 0l0 28.796906l8.640625 0l0 1.875l-19.921875 0z" fill-rule="nonzero"/><path fill="#ffffff" d="m172.50893 369.70697l79.1181 0l0 79.1181l-79.1181 0z" fill-rule="evenodd"/><path stroke="#000000" stroke-width="2.0" stroke-linejoin="round" stroke-linecap="butt" d="m172.50893 369.70697l79.1181 0l0 79.1181l-79.1181 0z" fill-rule="evenodd"/><path fill="#000000" d="m213.16794 426.92413q-2.59375 0 -4.703125 -0.953125q-2.109375 -0.96875 -3.578125 -2.8125q-1.453125 -1.859375 -2.28125 -4.546875q-0.8125 -2.6875 -0.8125 -6.1875q0 -4.796875 1.046875 -8.109375q1.0625 -3.3125 2.8125 -5.375q1.765625 -2.0625 4.03125 -2.953125q2.28125 -0.890625 4.78125 -0.890625q2.59375 0 4.46875 0.828125q1.875 0.8125 3.359375 2.15625l-1.296875 1.4375q-1.296875 -1.25 -2.984375 -1.890625q-1.671875 -0.65625 -3.546875 -0.65625q-2.109375 0 -4.015625 0.796875q-1.890625 0.78125 -3.328125 2.59375q-1.4375 1.796875 -2.3125 4.671875q-0.859375 2.875 -0.859375 7.109375q2.015625 -2.015625 4.375 -3.171875q2.359375 -1.15625 5.046875 -1.15625q4.40625 0 7.0 2.421875q2.59375 2.421875 2.59375 7.078125q0 2.125 -0.796875 3.875q-0.78125 1.75 -2.125 3.03125q-1.34375 1.265625 -3.125 1.984375q-1.78125 0.71875 -3.75 0.71875zm0.09375 -1.828125q1.640625 0 3.0 -0.59375q1.375 -0.609375 2.375 -1.65625q1.015625 -1.0625 1.59375 -2.46875q0.578125 -1.421875 0.578125 -3.0625q0 -3.640625 -1.921875 -5.65625q-1.921875 -2.015625 -5.8125 -2.015625q-1.96875 0 -4.375 1.0625q-2.390625 1.046875 -4.6875 3.59375q0.1875 2.453125 0.828125 4.453125q0.65625 1.984375 1.78125 3.40625q1.125 1.40625 2.78125 2.171875q1.65625 0.765625 3.859375 0.765625z" fill-rule="nonzero"/><path fill="#ffffff" d="m172.50893 268.86118l79.1181 0l0 79.1181l-79.1181 0z" fill-rule="evenodd"/><path stroke="#000000" stroke-width="2.0" stroke-linejoin="round" stroke-linecap="butt" d="m172.50893 268.86118l79.1181 0l0 79.1181l-79.1181 0z" fill-rule="evenodd"/><path fill="#000000" d="m211.44919 326.07837q-2.125 0 -3.734375 -0.359375q-1.59375 -0.359375 -2.890625 -0.953125q-1.296875 -0.609375 -2.3125 -1.34375q-1.0 -0.75 -1.875 -1.46875l1.203125 -1.5q0.765625 0.734375 1.671875 1.40625q0.921875 0.671875 2.078125 1.203125q1.15625 0.515625 2.59375 0.828125q1.4375 0.3125 3.265625 0.3125q1.765625 0 3.375 -0.59375q1.609375 -0.609375 2.8125 -1.6875q1.203125 -1.078125 1.890625 -2.59375q0.703125 -1.515625 0.703125 -3.375q0 -3.75 -2.3125 -5.828125q-2.296875 -2.09375 -6.375 -2.09375q-2.109375 0 -3.65625 0.578125q-1.53125 0.578125 -3.203125 1.484375l-1.5 -0.90625l1.15625 -14.359375l16.515625 0l0 1.875l-14.59375 0l-1.015625 11.078125q1.5 -0.71875 3.0 -1.171875q1.515625 -0.453125 3.625 -0.453125q2.265625 0 4.171875 0.578125q1.921875 0.578125 3.34375 1.75q1.421875 1.171875 2.234375 3.03125q0.8125 1.84375 0.8125 4.34375q0 2.4375 -0.9375 4.34375q-0.9375 1.890625 -2.46875 3.21875q-1.53125 1.3125 -3.5 1.984375q-1.96875 0.671875 -4.078125 0.671875z" fill-rule="nonzero"/><path fill="#ffffff" d="m172.50893 155.73013l79.1181 0l0 79.11812l-79.1181 0z" fill-rule="evenodd"/><path stroke="#000000" stroke-width="2.0" stroke-linejoin="round" stroke-linecap="butt" d="m172.50893 155.73013l79.1181 0l0 79.11812l-79.1181 0z" fill-rule="evenodd"/><path fill="#000000" d="m188.45541 212.36919l0 -1.875l9.171875 0l0 -25.4375l-6.875 0l0 -1.4375q2.453125 -0.34375 4.25 -0.8125q1.796875 -0.484375 3.140625 -1.109375l1.59375 0l0 28.796875l8.640625 0l0 1.875l-19.921875 0zm39.112564 0.578125q-2.59375 0 -4.703125 -0.953125q-2.109375 -0.96875 -3.578125 -2.8125q-1.453125 -1.859375 -2.28125 -4.546875q-0.8125 -2.6875 -0.8125 -6.1875q0 -4.796875 1.046875 -8.109375q1.0625 -3.3125 2.8125 -5.375q1.765625 -2.0625 4.03125 -2.953125q2.28125 -0.890625 4.78125 -0.890625q2.59375 0 4.46875 0.828125q1.875 0.8125 3.359375 2.15625l-1.296875 1.4375q-1.296875 -1.25 -2.984375 -1.890625q-1.671875 -0.65625 -3.546875 -0.65625q-2.109375 0 -4.015625 0.796875q-1.890625 0.78125 -3.328125 2.59375q-1.4375 1.796875 -2.3125 4.671875q-0.859375 2.875 -0.859375 7.109375q2.015625 -2.015625 4.375 -3.171875q2.359375 -1.15625 5.046875 -1.15625q4.40625 0 7.0 2.421875q2.59375 2.421875 2.59375 7.078125q0 2.125 -0.796875 3.875q-0.78125 1.75 -2.125 3.03125q-1.34375 1.265625 -3.125 1.984375q-1.78125 0.71875 -3.75 0.71875zm0.09375 -1.828125q1.640625 0 3.0 -0.59375q1.375 -0.609375 2.375 -1.65625q1.015625 -1.0625 1.59375 -2.46875q0.578125 -1.421875 0.578125 -3.0625q0 -3.640625 -1.921875 -5.65625q-1.921875 -2.015625 -5.8125 -2.015625q-1.96875 0 -4.375 1.0625q-2.390625 1.046875 -4.6875 3.59375q0.1875 2.453125 0.828125 4.453125q0.65625 1.984375 1.78125 3.40625q1.125 1.40625 2.78125 2.171875q1.65625 0.765625 3.859375 0.765625z" fill-rule="nonzero"/><path fill="#ffffff" d="m172.50893 58.01952l79.1181 0l0 79.11812l-79.1181 0z" fill-rule="evenodd"/><path stroke="#000000" stroke-width="2.0" stroke-linejoin="round" stroke-linecap="butt" d="m172.50893 58.01952l79.1181 0l0 79.11812l-79.1181 0z" fill-rule="evenodd"/><path fill="#000000" d="m187.83041 99.736694l0 -1.828125l19.671875 0l0 1.828125l-19.671875 0zm38.25319 15.5q-2.015625 0 -3.65625 -0.390625q-1.625 -0.375 -2.953125 -1.0q-1.3125 -0.625 -2.375 -1.390625q-1.046875 -0.765625 -1.8125 -1.546875l1.203125 -1.484375q1.53125 1.53125 3.828125 2.734375q2.3125 1.203125 5.765625 1.203125q1.78125 0 3.28125 -0.46875q1.515625 -0.484375 2.625 -1.375q1.109375 -0.890625 1.75 -2.140625q0.640625 -1.25 0.640625 -2.78125q0 -3.171875 -2.921875 -5.140625q-2.921875 -1.96875 -9.3125 -1.96875l0 -1.875q3.03125 0 5.109375 -0.515625q2.09375 -0.53125 3.4375 -1.421875q1.34375 -0.890625 1.9375 -2.109375q0.609375 -1.21875 0.609375 -2.625q0 -2.578125 -2.015625 -4.140625q-2.015625 -1.5625 -5.28125 -1.5625q-2.40625 0 -4.546875 0.984375q-2.125 0.984375 -3.5625 2.375l-1.296875 -1.4375q1.71875 -1.546875 4.09375 -2.640625q2.375 -1.109375 5.359375 -1.109375q1.96875 0 3.6875 0.515625q1.734375 0.5 3.0 1.4375q1.28125 0.921875 2.015625 2.296875q0.75 1.375 0.75 3.140625q0 1.546875 -0.53125 2.75q-0.53125 1.1875 -1.46875 2.125q-0.921875 0.9375 -2.203125 1.609375q-1.265625 0.671875 -2.75 1.109375l0 0.1875q1.578125 0.28125 3.0625 0.984375q1.484375 0.6875 2.59375 1.703125q1.109375 1.0 1.78125 2.328125q0.671875 1.3125 0.671875 2.953125q0 2.015625 -0.828125 3.625q-0.8125 1.609375 -2.234375 2.734375q-1.40625 1.125 -3.328125 1.734375q-1.921875 0.59375 -4.125 0.59375z" fill-rule="nonzero"/><path fill="#ffffff" d="m759.2568 367.57834l79.1181 0l0 79.11813l-79.1181 0z" fill-rule="evenodd"/><path stroke="#000000" stroke-width="2.0" stroke-linejoin="round" stroke-linecap="butt" d="m759.2568 367.57834l79.1181 0l0 79.11813l-79.1181 0z" fill-rule="evenodd"/><path fill="#000000" d="m788.45325 424.2174l0 -9.171875l-16.421875 0l0 -1.296875l16.796875 -20.25l1.6875 0l0 19.671875l5.328125 0l0 1.875l-5.328125 0l0 9.171875l-2.0625 0zm-13.546875 -11.046875l13.546875 0l0 -12.046875q0.09375 -1.09375 0.109375 -2.296875q0.03125 -1.203125 0.125 -2.359375l-0.28125 0q-0.734375 1.015625 -1.484375 2.03125q-0.734375 1.0 -1.5 2.0625l-10.515625 12.609375zm42.346985 11.046875l0 -9.171875l-16.421875 0l0 -1.296875l16.796875 -20.25l1.6875 0l0 19.671875l5.328064 0l0 1.875l-5.328064 0l0 9.171875l-2.0625 0zm-13.546875 -11.046875l13.546875 0l0 -12.046875q0.09375 -1.09375 0.109375 -2.296875q0.03125 -1.203125 0.125 -2.359375l-0.28125 0q-0.734375 1.015625 -1.484375 2.03125q-0.734375 1.0 -1.5 2.0625l-10.515625 12.609375z" fill-rule="nonzero"/><path fill="#000000" fill-opacity="0.0" d="m262.5089 723.9782c16.078094 0 24.116821 0.01574707 32.15622 0.03149414c8.039368 0.01574707 16.079376 0.03149414 32.158752 0.03149414" fill-rule="evenodd"/><path stroke="#000000" stroke-width="2.0" stroke-linejoin="round" stroke-linecap="butt" d="m262.5089 723.9782c16.078125 0 24.116821 0.01574707 32.15619 0.03149414c4.019684 0.007873535 8.039551 0.01574707 13.064392 0.021606445l7.094391 0.0059814453" fill-rule="evenodd"/><path fill="#000000" stroke="#000000" stroke-width="2.0" stroke-linecap="butt" d="m314.8228 727.3408l9.0772705 -3.3005981l-9.075165 -3.3063354z" fill-rule="evenodd"/><path fill="#000000" fill-opacity="0.0" d="m262.5089 407.1383c16.078094 0 24.116821 0.01574707 32.15622 0.03149414c8.039368 0.01574707 16.079376 0.03149414 32.158752 0.03149414" fill-rule="evenodd"/><path stroke="#000000" stroke-width="2.0" stroke-linejoin="round" stroke-linecap="butt" d="m262.5089 407.13828c16.078125 0 24.116821 0.01574707 32.15619 0.03149414c4.019684 0.007873535 8.039551 0.01574707 13.064392 0.02166748l7.094391 0.0060424805" fill-rule="evenodd"/><path fill="#000000" stroke="#000000" stroke-width="2.0" stroke-linecap="butt" d="m314.8228 410.50092l9.0772705 -3.3005676l-9.075165 -3.306366z" fill-rule="evenodd"/><path fill="#000000" fill-opacity="0.0" d="m262.5063 90.20203c16.078735 0 24.118134 0.01574707 32.1575 0.03149414c8.039368 0.01574707 16.078735 0.03149414 32.15747 0.03149414" fill-rule="evenodd"/><path stroke="#000000" stroke-width="2.0" stroke-linejoin="round" stroke-linecap="butt" d="m262.5063 90.20203c16.078735 0 24.118134 0.01574707 32.1575 0.03149414c4.019684 0.007881165 8.039368 0.0157547 13.063965 0.021659851l7.093506 0.006011963" fill-rule="evenodd"/><path fill="#000000" stroke="#000000" stroke-width="2.0" stroke-linecap="butt" d="m314.8202 93.56466l9.0772705 -3.3005753l-9.075165 -3.3063583z" fill-rule="evenodd"/><path fill="#ffffff" d="m476.96823 468.28003l79.11813 0l0 79.1181l-79.11813 0z" fill-rule="evenodd"/><path stroke="#000000" stroke-width="2.0" stroke-linejoin="round" stroke-linecap="butt" d="m476.96823 468.28003l79.11813 0l0 79.1181l-79.11813 0z" fill-rule="evenodd"/><path fill="#000000" d="m515.56476 510.95035q2.109375 0 4.53125 -1.09375q2.4375 -1.109375 4.59375 -3.609375q-0.1875 -2.453125 -0.84375 -4.421875q-0.640625 -1.96875 -1.78125 -3.375q-1.125 -1.421875 -2.78125 -2.1875q-1.65625 -0.765625 -3.859375 -0.765625q-1.640625 0 -3.03125 0.609375q-1.390625 0.59375 -2.40625 1.625q-1.0 1.03125 -1.578125 2.453125q-0.5625 1.40625 -0.5625 3.03125q0 3.65625 1.90625 5.703125q1.921875 2.03125 5.8125 2.03125zm-1.34375 14.5468445q-2.59375 0 -4.46875 -0.8125q-1.859375 -0.828125 -3.40625 -2.171875l1.296875 -1.4375q2.6875 2.546875 6.578125 2.546875q2.0625 0 3.984375 -0.78125q1.921875 -0.796875 3.359375 -2.59375q1.4375 -1.8125 2.296875 -4.6875q0.875 -2.875 0.875 -7.1093445q-2.015625 1.96875 -4.375 3.125q-2.34375 1.1562195 -5.03125 1.1562195q-4.46875 0 -7.046875 -2.4218445q-2.5625 -2.4375 -2.5625 -7.09375q0 -2.0625 0.796875 -3.828125q0.796875 -1.78125 2.140625 -3.03125q1.34375 -1.25 3.09375 -1.96875q1.75 -0.71875 3.71875 -0.71875q5.234375 0 8.296875 3.71875q3.078125 3.71875 3.078125 10.734375q0 4.8437195 -1.0625 8.1562195q-1.046875 3.3125 -2.796875 5.359375q-1.75 2.03125 -4.03125 2.953125q-2.28125 0.90625 -4.734375 0.90625z" fill-rule="nonzero"/><path fill="#ffffff" d="m476.96823 367.54843l79.11813 0l0 79.1181l-79.11813 0z" fill-rule="evenodd"/><path stroke="#000000" stroke-width="2.0" stroke-linejoin="round" stroke-linecap="butt" d="m476.96823 367.54843l79.11813 0l0 79.1181l-79.11813 0z" fill-rule="evenodd"/><path fill="#000000" d="m491.66473 424.18747l0 -1.34375q4.21875 -3.84375 7.40625 -6.859375q3.203125 -3.03125 5.28125 -5.546875q2.09375 -2.515625 3.140625 -4.65625q1.0625 -2.140625 1.0625 -4.203125q0 -1.4375 -0.4375 -2.6875q-0.421875 -1.25 -1.359375 -2.15625q-0.9375 -0.921875 -2.375 -1.4375q-1.4375 -0.53125 -3.40625 -0.53125q-2.359375 0 -4.421875 1.15625q-2.0625 1.140625 -3.640625 2.875l-1.390625 -1.34375q1.921875 -1.921875 4.21875 -3.21875q2.296875 -1.296875 5.421875 -1.296875q4.515625 0 7.0 2.359375q2.5 2.34375 2.5 6.234375q0 2.296875 -1.109375 4.578125q-1.09375 2.28125 -3.140625 4.8125q-2.03125 2.515625 -4.96875 5.375q-2.921875 2.84375 -6.5625 6.203125q1.484375 -0.09375 2.890625 -0.15625q1.421875 -0.078125 2.859375 -0.078125l11.765625 0l0 1.921875l-20.734375 0zm28.800049 0l0 -1.34375q4.21875 -3.84375 7.40625 -6.859375q3.203125 -3.03125 5.28125 -5.546875q2.09375 -2.515625 3.140625 -4.65625q1.0625 -2.140625 1.0625 -4.203125q0 -1.4375 -0.4375 -2.6875q-0.421875 -1.25 -1.359375 -2.15625q-0.9375 -0.921875 -2.375 -1.4375q-1.4375 -0.53125 -3.40625 -0.53125q-2.359375 0 -4.421875 1.15625q-2.0625 1.140625 -3.640625 2.875l-1.390625 -1.34375q1.921875 -1.921875 4.21875 -3.21875q2.296875 -1.296875 5.421875 -1.296875q4.515625 0 7.0 2.359375q2.5 2.34375 2.5 6.234375q0 2.296875 -1.109375 4.578125q-1.09375 2.28125 -3.140625 4.8125q-2.03125 2.515625 -4.96875 5.375q-2.921875 2.84375 -6.5625 6.203125q1.484375 -0.09375 2.890625 -0.15625q1.421875 -0.078125 2.859375 -0.078125l11.765625 0l0 1.921875l-20.734375 0z" fill-rule="nonzero"/><path fill="#ffffff" d="m476.96823 266.8155l79.11813 0l0 79.11813l-79.11813 0z" fill-rule="evenodd"/><path stroke="#000000" stroke-width="2.0" stroke-linejoin="round" stroke-linecap="butt" d="m476.96823 266.8155l79.11813 0l0 79.11813l-79.11813 0z" fill-rule="evenodd"/><path fill="#000000" d="m492.91473 323.45456l0 -1.875l9.171875 0l0 -25.4375l-6.875 0l0 -1.4375q2.453125 -0.34375 4.25 -0.8125q1.796875 -0.484375 3.140625 -1.109375l1.59375 0l0 28.796875l8.640625 0l0 1.875l-19.921875 0zm37.628174 0.578125q-2.015625 0 -3.65625 -0.390625q-1.625 -0.375 -2.953125 -1.0q-1.3125 -0.625 -2.375 -1.390625q-1.046875 -0.765625 -1.8125 -1.546875l1.203125 -1.484375q1.53125 1.53125 3.828125 2.734375q2.3125 1.203125 5.765625 1.203125q1.78125 0 3.28125 -0.46875q1.515625 -0.484375 2.625 -1.375q1.109375 -0.890625 1.75 -2.140625q0.640625 -1.25 0.640625 -2.78125q0 -3.171875 -2.921875 -5.140625q-2.921875 -1.96875 -9.3125 -1.96875l0 -1.875q3.03125 0 5.109375 -0.515625q2.09375 -0.53125 3.4375 -1.421875q1.34375 -0.890625 1.9375 -2.109375q0.609375 -1.21875 0.609375 -2.625q0 -2.578125 -2.015625 -4.140625q-2.015625 -1.5625 -5.28125 -1.5625q-2.40625 0 -4.546875 0.984375q-2.125 0.984375 -3.5625 2.375l-1.296875 -1.4375q1.71875 -1.546875 4.09375 -2.640625q2.375 -1.109375 5.359375 -1.109375q1.96875 0 3.6875 0.515625q1.734375 0.5 3.0 1.4375q1.28125 0.921875 2.015625 2.296875q0.75 1.375 0.75 3.140625q0 1.546875 -0.53125 2.75q-0.53125 1.1875 -1.46875 2.125q-0.921875 0.9375 -2.203125 1.609375q-1.265625 0.671875 -2.75 1.109375l0 0.1875q1.578125 0.28125 3.0625 0.984375q1.484375 0.6875 2.59375 1.703125q1.109375 1.0 1.78125 2.328125q0.671875 1.3125 0.671875 2.953125q0 2.015625 -0.828125 3.625q-0.8125 1.609375 -2.234375 2.734375q-1.40625 1.125 -3.328125 1.734375q-1.921875 0.59375 -4.125 0.59375z" fill-rule="nonzero"/><path fill="#000000" fill-opacity="0.0" d="m395.2307 723.9448c20.434296 0 30.652039 -54.02362 40.86859 -108.04724c10.216522 -54.02362 20.431854 -108.04727 40.863678 -108.04727" fill-rule="evenodd"/><path stroke="#000000" stroke-width="2.0" stroke-linejoin="round" stroke-linecap="butt" d="m395.2307 723.9448c20.434265 0 30.652039 -54.02362 40.86856 -108.04724c5.1082764 -27.01184 10.216248 -54.02362 16.601105 -74.28253c3.1924744 -10.129395 6.7041016 -18.570618 10.694672 -24.479431c0.4988098 -0.7385864 1.005127 -1.4376221 1.5192261 -2.095459c0.25701904 -0.32891846 0.51605225 -0.647522 0.7770386 -0.95562744c0.13049316 -0.15405273 0.2614746 -0.30548096 0.39297485 -0.45422363l0.22775269 -0.25213623" fill-rule="evenodd"/><path fill="#000000" stroke="#000000" stroke-width="2.0" stroke-linecap="butt" d="m467.83383 516.31024l6.5340576 -7.1130676l-9.577576 1.2489014z" fill-rule="evenodd"/><path fill="#000000" fill-opacity="0.0" d="m395.2307 407.10492c20.434296 0 30.652039 0.01574707 40.86859 0.03149414c10.216522 0.01574707 20.431854 0.03149414 40.863678 0.03149414" fill-rule="evenodd"/><path stroke="#000000" stroke-width="2.0" stroke-linejoin="round" stroke-linecap="butt" d="m395.2307 407.10492c20.434265 0 30.652039 0.01574707 40.86856 0.03149414c5.1082764 0.007873535 10.216248 0.01574707 16.601105 0.021636963c3.1924744 0.002960205 6.7041016 0.005432129 10.694672 0.0071411133l1.5679626 3.3569336E-4" fill-rule="evenodd"/><path fill="#000000" stroke="#000000" stroke-width="2.0" stroke-linecap="butt" d="m464.96234 410.46896l9.076874 -3.3016357l-9.075562 -3.3052979z" fill-rule="evenodd"/><path fill="#000000" fill-opacity="0.0" d="m395.2307 90.265015c20.434296 0 30.652039 54.02362 40.86859 108.04724c10.216522 54.02362 20.431854 108.04724 40.863678 108.04724" fill-rule="evenodd"/><path stroke="#000000" stroke-width="2.0" stroke-linejoin="round" stroke-linecap="butt" d="m395.2307 90.26502c20.434265 0 30.652039 54.023613 40.86856 108.04723c5.1082764 27.01181 10.216248 54.02362 16.601105 74.28247c3.1924744 10.129425 6.7041016 18.570618 10.694672 24.479462c0.4988098 0.7385864 1.005127 1.4376526 1.5192261 2.095459c0.25701904 0.32891846 0.51605225 0.647522 0.7770386 0.95562744c0.13049316 0.15402222 0.2614746 0.30545044 0.39297485 0.45422363l0.22775269 0.25213623" fill-rule="evenodd"/><path fill="#000000" stroke="#000000" stroke-width="2.0" stroke-linecap="butt" d="m464.7903 303.76373l9.577576 1.2489014l-6.5340576 -7.113098z" fill-rule="evenodd"/><path fill="#ffffff" d="m326.82126 723.9448l0 0c0 -18.890747 15.313965 -34.204712 34.204712 -34.204712l0 0c9.071655 0 17.771759 3.6036987 24.186401 10.018311c6.4146423 6.414612 10.018341 15.114746 10.018341 24.186401l0 0c0 18.890747 -15.313995 34.204712 -34.204742 34.204712l0 0c-18.890747 0 -34.204712 -15.313965 -34.204712 -34.204712z" fill-rule="evenodd"/><path stroke="#000000" stroke-width="2.0" stroke-linejoin="round" stroke-linecap="butt" d="m326.82126 723.9448l0 0c0 -18.890747 15.313965 -34.204712 34.204712 -34.204712l0 0c9.071655 0 17.771759 3.6036987 24.186401 10.018311c6.4146423 6.414612 10.018341 15.114746 10.018341 24.186401l0 0c0 18.890747 -15.313995 34.204712 -34.204742 34.204712l0 0c-18.890747 0 -34.204712 -15.313965 -34.204712 -34.204712z" fill-rule="evenodd"/><path fill="#000000" d="m352.48022 732.4848l0 -14.859375l-5.484375 0l0 -0.953125l12.09375 0l0 0.953125l-5.5 0l0 14.859375l-1.109375 0zm10.353088 0l0 -0.9375l4.578125 0l0 -12.71875l-3.421875 0l0 -0.71875q1.21875 -0.171875 2.109375 -0.40625q0.90625 -0.25 1.578125 -0.5625l0.796875 0l0 14.40625l4.3125 0l0 0.9375l-9.953125 0z" fill-rule="nonzero"/><path fill="#ffffff" d="m326.82126 407.10492l0 0c0 -18.890747 15.313965 -34.204742 34.204712 -34.204742l0 0c9.071655 0 17.771759 3.6036987 24.186401 10.018341c6.4146423 6.4146423 10.018341 15.114746 10.018341 24.186401l0 0c0 18.890747 -15.313995 34.204712 -34.204742 34.204712l0 0c-18.890747 0 -34.204712 -15.313965 -34.204712 -34.204712z" fill-rule="evenodd"/><path stroke="#000000" stroke-width="2.0" stroke-linejoin="round" stroke-linecap="butt" d="m326.82126 407.10492l0 0c0 -18.890747 15.313965 -34.204742 34.204712 -34.204742l0 0c9.071655 0 17.771759 3.6036987 24.186401 10.018341c6.4146423 6.4146423 10.018341 15.114746 10.018341 24.186401l0 0c0 18.890747 -15.313995 34.204712 -34.204742 34.204712l0 0c-18.890747 0 -34.204712 -15.313965 -34.204712 -34.204712z" fill-rule="evenodd"/><path fill="#000000" d="m352.48022 415.6449l0 -14.859375l-5.484375 0l0 -0.953125l12.09375 0l0 0.953125l-5.5 0l0 14.859375l-1.109375 0zm9.728088 0l0 -0.671875q2.109375 -1.921875 3.703125 -3.421875q1.59375 -1.515625 2.640625 -2.78125q1.046875 -1.265625 1.578125 -2.328125q0.53125 -1.0625 0.53125 -2.09375q0 -0.734375 -0.21875 -1.34375q-0.21875 -0.625 -0.6875 -1.078125q-0.46875 -0.46875 -1.1875 -0.734375q-0.71875 -0.265625 -1.703125 -0.265625q-1.171875 0 -2.203125 0.578125q-1.03125 0.578125 -1.828125 1.4375l-0.703125 -0.671875q0.96875 -0.953125 2.109375 -1.59375q1.15625 -0.65625 2.71875 -0.65625q2.25 0 3.5 1.1875q1.25 1.171875 1.25 3.109375q0 1.15625 -0.546875 2.296875q-0.546875 1.140625 -1.578125 2.40625q-1.015625 1.25 -2.484375 2.6875q-1.453125 1.421875 -3.28125 3.09375q0.734375 -0.046875 1.4375 -0.078125q0.71875 -0.03125 1.4375 -0.03125l5.890625 0l0 0.953125l-10.375 0z" fill-rule="nonzero"/><path fill="#ffffff" d="m326.82126 90.265015l0 0c0 -18.890747 15.313965 -34.204723 34.204712 -34.204723l0 0c9.071655 0 17.771759 3.6037025 24.186401 10.01833c6.4146423 6.4146347 10.018341 15.114738 10.018341 24.186394l0 0c0 18.890747 -15.313995 34.204727 -34.204742 34.204727l0 0c-18.890747 0 -34.204712 -15.31398 -34.204712 -34.204727z" fill-rule="evenodd"/><path stroke="#000000" stroke-width="2.0" stroke-linejoin="round" stroke-linecap="butt" d="m326.82126 90.265015l0 0c0 -18.890747 15.313965 -34.204723 34.204712 -34.204723l0 0c9.071655 0 17.771759 3.6037025 24.186401 10.01833c6.4146423 6.4146347 10.018341 15.114738 10.018341 24.186394l0 0c0 18.890747 -15.313995 34.204727 -34.204742 34.204727l0 0c-18.890747 0 -34.204712 -15.31398 -34.204712 -34.204727z" fill-rule="evenodd"/><path fill="#000000" d="m352.48022 98.805016l0 -14.859375l-5.484375 0l0 -0.953125l12.09375 0l0 0.953125l-5.5 0l0 14.859375l-1.109375 0zm14.774963 0.28125q-1.015625 0 -1.828125 -0.1875q-0.8125 -0.1875 -1.484375 -0.5q-0.65625 -0.3125 -1.1875 -0.6875q-0.53125 -0.390625 -0.90625 -0.78125l0.59375 -0.734375q0.765625 0.765625 1.921875 1.375q1.15625 0.59375 2.890625 0.59375q0.875 0 1.625 -0.234375q0.765625 -0.25 1.3125 -0.6875q0.5625 -0.453125 0.875 -1.078125q0.328125 -0.625 0.328125 -1.390625q0 -1.578125 -1.46875 -2.5625q-1.453125 -0.984375 -4.640625 -0.984375l0 -0.9375q1.5 0 2.546875 -0.265625q1.046875 -0.265625 1.71875 -0.703125q0.671875 -0.453125 0.96875 -1.0625q0.296875 -0.609375 0.296875 -1.3125q0 -1.296875 -1.015625 -2.078125q-1.0 -0.78125 -2.625 -0.78125q-1.203125 0 -2.28125 0.5q-1.0625 0.484375 -1.78125 1.1875l-0.640625 -0.71875q0.859375 -0.765625 2.046875 -1.3125q1.1875 -0.5625 2.671875 -0.5625q0.984375 0 1.84375 0.25q0.875 0.25 1.5 0.71875q0.640625 0.46875 1.015625 1.15625q0.375 0.6875 0.375 1.578125q0 0.765625 -0.265625 1.375q-0.265625 0.59375 -0.734375 1.0625q-0.46875 0.453125 -1.109375 0.796875q-0.625 0.328125 -1.375 0.546875l0 0.09375q0.796875 0.15625 1.53125 0.5q0.75 0.34375 1.296875 0.859375q0.5625 0.5 0.890625 1.15625q0.34375 0.65625 0.34375 1.46875q0 1.015625 -0.40625 1.828125q-0.40625 0.796875 -1.125 1.359375q-0.703125 0.5625 -1.671875 0.859375q-0.953125 0.296875 -2.046875 0.296875z" fill-rule="nonzero"/><path fill="#ffffff" d="m628.90656 407.13904l0 0c0 -18.890747 15.313965 -34.204742 34.204712 -34.204742l0 0c9.071655 0 17.77179 3.6036987 24.186401 10.018341c6.414612 6.4146423 10.018311 15.114746 10.018311 24.186401l0 0c0 18.890747 -15.313965 34.204712 -34.204712 34.204712l0 0c-18.890747 0 -34.204712 -15.313965 -34.204712 -34.204712z" fill-rule="evenodd"/><path stroke="#000000" stroke-width="2.0" stroke-linejoin="round" stroke-linecap="butt" d="m628.90656 407.13904l0 0c0 -18.890747 15.313965 -34.204742 34.204712 -34.204742l0 0c9.071655 0 17.77179 3.6036987 24.186401 10.018341c6.414612 6.4146423 10.018311 15.114746 10.018311 24.186401l0 0c0 18.890747 -15.313965 34.204712 -34.204712 34.204712l0 0c-18.890747 0 -34.204712 -15.313965 -34.204712 -34.204712z" fill-rule="evenodd"/><path fill="#000000" d="m654.5655 415.67902l0 -14.859375l-5.484375 0l0 -0.953125l12.09375 0l0 0.953125l-5.5 0l0 14.859375l-1.109375 0zm16.978088 0l0 -4.578125l-8.203125 0l0 -0.65625l8.390625 -10.125l0.84375 0l0 9.84375l2.65625 0l0 0.9375l-2.65625 0l0 4.578125l-1.03125 0zm-6.765625 -5.515625l6.765625 0l0 -6.03125q0.046875 -0.546875 0.046875 -1.140625q0.015625 -0.609375 0.078125 -1.1875l-0.15625 0q-0.359375 0.5 -0.734375 1.015625q-0.359375 0.5 -0.75 1.03125l-5.25 6.3125z" fill-rule="nonzero"/></g></svg>