<svg version="1.1" viewBox="0.0 0.0 1500.0 700.0" fill="none" stroke="none" stroke-linecap="square" stroke-miterlimit="10" xmlns:xlink="http://www.w3.org/1999/xlink" xmlns="http://www.w3.org/2000/svg"><clipPath id="g641ae008b2_0_175.0"><path d="m0 0l1500.0 0l0 700.0l-1500.0 0l0 -700.0z" clip-rule="nonzero"/></clipPath><g clip-path="url(#g641ae008b2_0_175.0)"><path fill="#000000" fill-opacity="0.0" d="m0 0l1500.0 0l0 700.0l-1500.0 0z" fill-rule="evenodd"/><path fill="#ffffff" d="m475.0381 146.26772l79.1181 0l0 79.11812l-79.1181 0z" fill-rule="evenodd"/><path stroke="#000000" stroke-width="2.0" stroke-linejoin="round" stroke-linecap="butt" d="m475.0381 146.26772l79.1181 0l0 79.11812l-79.1181 0z" fill-rule="evenodd"/><path fill="#ffffff" d="m715.63837 240.51968l0 0c0 -18.890747 15.313965 -34.204727 34.204712 -34.204727l0 0c9.071716 0 17.77179 3.6036987 24.186401 10.018341c6.414673 6.414627 10.018372 15.114731 10.018372 24.186386l0 0c0 18.890747 -15.314026 34.204712 -34.204773 34.204712l0 0c-18.890747 0 -34.204712 -15.313965 -34.204712 -34.204712z" fill-rule="evenodd"/><path stroke="#000000" stroke-width="2.0" stroke-linejoin="round" stroke-linecap="butt" d="m715.63837 240.51968l0 0c0 -18.890747 15.313965 -34.204727 34.204712 -34.204727l0 0c9.071716 0 17.77179 3.6036987 24.186401 10.018341c6.414673 6.414627 10.018372 15.114731 10.018372 24.186386l0 0c0 18.890747 -15.314026 34.204712 -34.204773 34.204712l0 0c-18.890747 0 -34.204712 -15.313965 -34.204712 -34.204712z" fill-rule="evenodd"/><path fill="#ffffff" d="m475.0381 255.71654l79.1181 0l0 79.11812l-79.1181 0z" fill-rule="evenodd"/><path stroke="#000000" stroke-width="2.0" stroke-linejoin="round" stroke-linecap="butt" d="m475.0381 255.71654l79.1181 0l0 79.11812l-79.1181 0z" fill-rule="evenodd"/><path fill="#ffffff" d="m475.0381 365.16534l79.1181 0l0 79.11813l-79.1181 0z" fill-rule="evenodd"/><path stroke="#000000" stroke-width="2.0" stroke-linejoin="round" stroke-linecap="butt" d="m475.0381 365.16534l79.1181 0l0 79.11813l-79.1181 0z" fill-rule="evenodd"/><path fill="#ffffff" d="m715.63837 349.9685l0 0c0 -18.890747 15.313965 -34.204712 34.204712 -34.204712l0 0c9.071716 0 17.77179 3.6036987 24.186401 10.018311c6.414673 6.4146423 10.018372 15.114746 10.018372 24.186401l0 0c0 18.890747 -15.314026 34.204712 -34.204773 34.204712l0 0c-18.890747 0 -34.204712 -15.313965 -34.204712 -34.204712z" fill-rule="evenodd"/><path stroke="#000000" stroke-width="2.0" stroke-linejoin="round" stroke-linecap="butt" d="m715.63837 349.9685l0 0c0 -18.890747 15.313965 -34.204712 34.204712 -34.204712l0 0c9.071716 0 17.77179 3.6036987 24.186401 10.018311c6.414673 6.4146423 10.018372 15.114746 10.018372 24.186401l0 0c0 18.890747 -15.314026 34.204712 -34.204773 34.204712l0 0c-18.890747 0 -34.204712 -15.313965 -34.204712 -34.204712z" fill-rule="evenodd"/><path fill="#ffffff" d="m715.63837 459.41733l0 0c0 -18.890747 15.313965 -34.204742 34.204712 -34.204742l0 0c9.071716 0 17.77179 3.6037292 24.186401 10.018341c6.414673 6.4146423 10.018372 15.114746 10.018372 24.186401l0 0c0 18.890747 -15.314026 34.204712 -34.204773 34.204712l0 0c-18.890747 0 -34.204712 -15.313965 -34.204712 -34.204712z" fill-rule="evenodd"/><path stroke="#000000" stroke-width="2.0" stroke-linejoin="round" stroke-linecap="butt" d="m715.63837 459.41733l0 0c0 -18.890747 15.313965 -34.204742 34.204712 -34.204742l0 0c9.071716 0 17.77179 3.6037292 24.186401 10.018341c6.414673 6.4146423 10.018372 15.114746 10.018372 24.186401l0 0c0 18.890747 -15.314026 34.204712 -34.204773 34.204712l0 0c-18.890747 0 -34.204712 -15.313965 -34.204712 -34.204712z" fill-rule="evenodd"/><path fill="#000000" fill-opacity="0.0" d="m554.1562 185.82677c40.37091 0 60.556763 13.67717 80.74176 27.35434c20.185059 13.677155 40.369324 27.354324 80.73859 27.354324" fill-rule="evenodd"/><path stroke="#000000" stroke-width="2.0" stroke-linejoin="round" stroke-linecap="butt" d="m554.1562 185.82677c40.37091 0 60.556763 13.67717 80.74176 27.35434c10.092529 6.8385773 20.184875 13.677155 32.800232 18.806091c6.307617 2.5644684 13.246094 4.701538 21.130615 6.1974792c3.9423828 0.7479706 8.121155 1.3356628 12.575989 1.7363586c0.55682373 0.050079346 1.118042 0.09725952 1.6835327 0.14144897l0.55584717 0.041809082" fill-rule="evenodd"/><path fill="#000000" stroke="#000000" stroke-width="2.0" stroke-linecap="butt" d="m703.5255 243.40561l9.189026 -2.9752197l-8.951599 -3.6274414z" fill-rule="evenodd"/><path fill="#000000" fill-opacity="0.0" d="m554.1562 295.2756c40.37091 0 60.556763 13.677155 80.74176 27.35431c20.185059 13.677185 40.369324 27.35434 80.73859 27.35434" fill-rule="evenodd"/><path stroke="#000000" stroke-width="2.0" stroke-linejoin="round" stroke-linecap="butt" d="m554.1562 295.2756c40.37091 0 60.556763 13.677155 80.74176 27.35431c10.092529 6.8385925 20.184875 13.677185 32.800232 18.806122c6.307617 2.5644531 13.246094 4.7015076 21.130615 6.1974487c3.9423828 0.74798584 8.121155 1.3356628 12.575989 1.7363586c0.55682373 0.050109863 1.118042 0.09725952 1.6835327 0.14144897l0.55584717 0.041809082" fill-rule="evenodd"/><path fill="#000000" stroke="#000000" stroke-width="2.0" stroke-linecap="butt" d="m703.5255 352.85443l9.189026 -2.9752197l-8.951599 -3.6274414z" fill-rule="evenodd"/><path fill="#000000" fill-opacity="0.0" d="m554.1562 514.1732c40.37091 0 60.556763 -13.685028 80.74176 -27.370056c20.185059 -13.685059 40.369324 -27.370087 80.73859 -27.370087" fill-rule="evenodd"/><path stroke="#000000" stroke-width="2.0" stroke-linejoin="round" stroke-linecap="butt" d="m554.1562 514.1732c40.37091 0 60.556763 -13.685028 80.74176 -27.370056c10.092529 -6.8425293 20.184875 -13.685059 32.800232 -18.816956c6.307617 -2.565918 13.246094 -4.7042236 21.130615 -6.2010193c3.9423828 -0.7484131 8.121155 -1.3364563 12.575989 -1.7373657c0.55682373 -0.050109863 1.118042 -0.09732056 1.6835327 -0.14154053l0.55596924 -0.041809082" fill-rule="evenodd"/><path fill="#000000" stroke="#000000" stroke-width="2.0" stroke-linecap="butt" d="m703.763 463.1658l8.951538 -3.6276245l-9.189087 -2.9750366z" fill-rule="evenodd"/><path fill="#ffffff" d="m945.8425 310.40945l79.118164 0l0 79.1181l-79.118164 0z" fill-rule="evenodd"/><path stroke="#000000" stroke-width="2.0" stroke-linejoin="round" stroke-linecap="butt" d="m945.8425 310.40945l79.118164 0l0 79.1181l-79.118164 0z" fill-rule="evenodd"/><path fill="#000000" fill-opacity="0.0" d="m784.04785 240.51968c40.44879 0 60.673218 27.362213 80.897644 54.724396c20.224365 27.362213 40.44879 54.724426 80.89758 54.724426" fill-rule="evenodd"/><path stroke="#000000" stroke-width="2.0" stroke-linejoin="round" stroke-linecap="butt" d="m784.0478 240.51968c40.448853 0 60.67328 27.362213 80.897644 54.724396c10.112244 13.681122 20.224426 27.362213 32.864685 37.623047c6.3201294 5.1304016 13.272217 9.405762 21.172424 12.398499c3.9501343 1.4963379 8.137207 2.6720886 12.600769 3.4737244c0.55792236 0.10018921 1.1201782 0.19454956 1.6868896 0.28295898l0.60339355 0.09063721" fill-rule="evenodd"/><path fill="#000000" stroke="#000000" stroke-width="2.0" stroke-linecap="butt" d="m933.6381 352.408l9.288635 -2.6479492l-8.817566 -3.9421692z" fill-rule="evenodd"/><path fill="#000000" fill-opacity="0.0" d="m784.04785 349.9685c40.44879 0 60.673218 0.01574707 80.897644 0.03149414c20.224365 0.01574707 40.44879 0.03149414 80.89758 0.03149414" fill-rule="evenodd"/><path stroke="#000000" stroke-width="2.0" stroke-linejoin="round" stroke-linecap="butt" d="m784.0478 349.9685c40.448853 0 60.67328 0.01574707 80.897644 0.03149414c10.112244 0.007873535 20.224426 0.01574707 32.864685 0.02166748c6.3201294 0.0029296875 13.272217 0.0054016113 21.172424 0.0071105957l14.860535 0.0015258789" fill-rule="evenodd"/><path fill="#000000" stroke="#000000" stroke-width="2.0" stroke-linecap="butt" d="m933.8428 353.33374l9.076538 -3.3025513l-9.075867 -3.3043518z" fill-rule="evenodd"/><path fill="#000000" fill-opacity="0.0" d="m784.04785 459.41733c40.44879 0 60.673218 -27.362213 80.897644 -54.724426c20.224365 -27.362183 40.44879 -54.724396 80.89758 -54.724396" fill-rule="evenodd"/><path stroke="#000000" stroke-width="2.0" stroke-linejoin="round" stroke-linecap="butt" d="m784.0478 459.41733c40.448853 0 60.67328 -27.362213 80.897644 -54.724426c10.112244 -13.681091 20.224426 -27.362183 32.864685 -37.623016c6.3201294 -5.1304016 13.272217 -9.405762 21.172424 -12.398499c3.9501343 -1.4963684 8.137207 -2.6720886 12.600769 -3.4737244c0.55792236 -0.10018921 1.1201782 -0.19454956 1.6868896 -0.28295898l0.60339355 -0.09063721" fill-rule="evenodd"/><path fill="#000000" stroke="#000000" stroke-width="2.0" stroke-linecap="butt" d="m934.1092 354.11914l8.817566 -3.9421692l-9.288635 -2.6479492z" fill-rule="evenodd"/><path fill="#ffffff" d="m475.56302 36.818897l79.11813 0l0 79.1181l-79.11813 0z" fill-rule="evenodd"/><path stroke="#000000" stroke-width="2.0" stroke-linejoin="round" stroke-linecap="butt" d="m475.56302 36.818897l79.11813 0l0 79.1181l-79.11813 0z" fill-rule="evenodd"/><path fill="#ffffff" d="m475.0381 474.61417l79.1181 0l0 79.11813l-79.1181 0z" fill-rule="evenodd"/><path stroke="#000000" stroke-width="2.0" stroke-linejoin="round" stroke-linecap="butt" d="m475.0381 474.61417l79.1181 0l0 79.11813l-79.1181 0z" fill-rule="evenodd"/><path fill="#ffffff" d="m475.56302 584.063l79.11813 0l0 79.1181l-79.11813 0z" fill-rule="evenodd"/><path stroke="#000000" stroke-width="2.0" stroke-linejoin="round" stroke-linecap="butt" d="m475.56302 584.063l79.11813 0l0 79.1181l-79.11813 0z" fill-rule="evenodd"/><path fill="#000000" fill-opacity="0.0" d="m554.1562 404.7244c40.37091 0 60.556763 -13.685028 80.74176 -27.370056c20.185059 -13.685059 40.369324 -27.370087 80.73859 -27.370087" fill-rule="evenodd"/><path stroke="#000000" stroke-width="2.0" stroke-linejoin="round" stroke-linecap="butt" d="m554.1562 404.7244c40.37091 0 60.556763 -13.685028 80.74176 -27.370056c10.092529 -6.8425293 20.184875 -13.685059 32.800232 -18.816925c6.307617 -2.5659485 13.246094 -4.704254 21.130615 -6.20105c3.9423828 -0.74838257 8.121155 -1.3364563 12.575989 -1.7373657c0.55682373 -0.050109863 1.118042 -0.09732056 1.6835327 -0.14154053l0.55596924 -0.041809082" fill-rule="evenodd"/><path fill="#000000" stroke="#000000" stroke-width="2.0" stroke-linecap="butt" d="m703.763 353.71698l8.951538 -3.6276245l-9.189087 -2.9750366z" fill-rule="evenodd"/><path fill="#000000" fill-opacity="0.0" d="m554.68115 76.37795c40.23944 0 60.36078 41.039368 80.47888 82.07874c20.118103 41.039368 40.23297 82.078735 80.466 82.078735" fill-rule="evenodd"/><path stroke="#000000" stroke-width="2.0" stroke-linejoin="round" stroke-linecap="butt" d="m554.68115 76.37795c40.23938 0 60.36078 41.039368 80.47888 82.07874c10.059021 20.519684 20.117249 41.039368 32.68988 56.42914c6.286316 7.69487 13.201233 14.107269 21.059143 18.595963c3.928894 2.244339 8.093567 4.0077515 12.533264 5.2100677c0.5549927 0.15028381 1.1142578 0.29180908 1.6779175 0.42442322l0.5751343 0.13024902" fill-rule="evenodd"/><path fill="#000000" stroke="#000000" stroke-width="2.0" stroke-linecap="butt" d="m703.3406 242.53088l9.37854 -2.309494l-8.668884 -4.2592163z" fill-rule="evenodd"/><path fill="#000000" fill-opacity="0.0" d="m554.68115 623.6221c40.23944 0 60.36078 -41.04724 80.47888 -82.09448c20.118103 -41.04727 40.23297 -82.09451 80.466 -82.09451" fill-rule="evenodd"/><path stroke="#000000" stroke-width="2.0" stroke-linejoin="round" stroke-linecap="butt" d="m554.68115 623.6221c40.23938 0 60.36078 -41.04724 80.47888 -82.09448c10.059021 -20.52362 20.117249 -41.04727 32.68988 -56.440002c6.286316 -7.69635 13.201233 -14.109985 21.059143 -18.599518c3.928894 -2.2447815 8.093567 -4.008545 12.533264 -5.21109c0.5549927 -0.15029907 1.1142578 -0.29187012 1.6779175 -0.4244995l0.5751953 -0.13024902" fill-rule="evenodd"/><path fill="#000000" stroke="#000000" stroke-width="2.0" stroke-linecap="butt" d="m704.0503 464.00656l8.668823 -4.2593994l-9.378601 -2.3092957z" fill-rule="evenodd"/><path fill="#000000" fill-opacity="0.0" d="m782.24115 150.91592l0 0c8.903381 0 16.121033 7.2176514 16.121033 16.121063l0 365.9311c0 4.2755737 -1.6984253 8.376038 -4.7217407 11.399353c-3.0232544 3.0232544 -7.1237183 4.7217407 -11.399292 4.7217407l-64.4823 0c-8.903381 0 -16.121033 -7.2176514 -16.121033 -16.121094l0 -365.9311c0 -8.903412 7.2176514 -16.121063 16.121033 -16.121063z" fill-rule="evenodd"/><path stroke="#ff0000" stroke-width="3.0" stroke-linejoin="round" stroke-linecap="butt" stroke-dasharray="3.0,9.0" d="m782.24115 150.91592l0 0c8.903381 0 16.121033 7.2176514 16.121033 16.121063l0 365.9311c0 4.2755737 -1.6984253 8.376038 -4.7217407 11.399353c-3.0232544 3.0232544 -7.1237183 4.7217407 -11.399292 4.7217407l-64.4823 0c-8.903381 0 -16.121033 -7.2176514 -16.121033 -16.121094l0 -365.9311c0 -8.903412 7.2176514 -16.121063 16.121033 -16.121063z" fill-rule="evenodd"/><path fill="#000000" fill-opacity="0.0" d="m701.6378 568.8504l370.2362 0l0 79.1181l-370.2362 0z" fill-rule="evenodd"/><path fill="#000000" d="m719.04407 623.9304q-1.15625 0 -2.296875 0.015625q-1.125 0.03125 -2.109375 0.046875q-0.96875 0.03125 -1.75 0.046875q-0.765625 0.03125 -1.1875 0.03125l0 -1.4375l2.34375 -0.140625q0.859375 -0.046875 1.21875 -0.1875q0.359375 -0.15625 0.515625 -0.25q0.375 -0.28125 0.515625 -1.125q0.15625 -0.84375 0.15625 -2.609375l0 -21.265625q0 -1.640625 -0.125 -2.640625q-0.125 -1.015625 -0.5 -1.5q-0.25 -0.28125 -0.78125 -0.421875q-0.515625 -0.140625 -1.140625 -0.1875l-2.15625 -0.15625l0 -1.4375q1.0 0 2.078125 0.03125q1.078125 0.015625 2.109375 0.046875q1.046875 0.015625 1.953125 0.046875q0.90625 0.015625 1.53125 0.015625q3.265625 0 5.453125 -0.0625q2.1875 -0.078125 3.8125 -0.078125q2.109375 0 3.90625 0.484375q1.8125 0.484375 3.109375 1.421875q1.296875 0.921875 2.03125 2.296875q0.75 1.375 0.75 3.140625q0 2.3125 -0.921875 4.203125q-0.90625 1.890625 -2.5 3.265625q-1.578125 1.359375 -3.671875 2.109375q-2.078125 0.75 -4.4375 0.75q-0.90625 0 -1.609375 -0.09375q-0.6875 -0.109375 -1.265625 -0.203125l-0.484375 -1.71875q1.5 0.46875 3.171875 0.46875q1.4375 0 2.6875 -0.515625q1.25 -0.53125 2.1875 -1.484375q0.9375 -0.96875 1.484375 -2.265625q0.5625 -1.296875 0.5625 -2.875q0 -3.75 -2.09375 -5.453125q-2.09375 -1.703125 -5.734375 -1.703125q-1.4375 0 -2.546875 0.140625q-1.109375 0.140625 -2.296875 0.4375l0 25.34375q0 3.3125 0.8125 3.6875q0.421875 0.203125 1.40625 0.328125q0.984375 0.109375 2.53125 0.15625l0 1.4375q-0.484375 0 -1.453125 -0.03125q-0.953125 -0.015625 -1.984375 -0.046875q-1.03125 -0.015625 -1.953125 -0.046875q-0.90625 -0.015625 -1.328125 -0.015625zm32.19519 -22.515625q2.3125 0 3.765625 0.53125q1.46875 0.53125 2.34375 1.625q0.8125 1.0625 1.234375 2.796875q0.4375 1.71875 0.4375 4.40625l0 8.734375q0 2.359375 0.34375 2.6875q0.28125 0.296875 1.046875 0.34375l1.828125 0.09375l0 1.4375q-0.8125 -0.046875 -1.84375 -0.09375q-1.03125 -0.046875 -1.703125 -0.046875q-0.78125 0 -1.890625 0.046875q-1.09375 0.046875 -1.859375 0.09375l0.234375 -4.078125l-5.953125 4.125q-0.375 0.25 -1.03125 0.3125q-0.640625 0.078125 -1.171875 0.078125q-2.453125 0 -4.15625 -1.4375q-1.703125 -1.4375 -1.703125 -4.375q0 -1.4375 0.4375 -2.640625q0.4375 -1.203125 1.46875 -2.15625q1.03125 -0.953125 2.703125 -1.671875q1.6875 -0.734375 4.171875 -1.15625l5.234375 -0.96875l0 -0.140625q0 -2.734375 -1.4375 -4.359375q-1.4375 -1.640625 -4.65625 -1.640625q-1.203125 0 -1.828125 0.125q-0.609375 0.109375 -1.0 0.40625q-0.234375 0.140625 -0.40625 0.359375q-0.171875 0.21875 -0.375 0.578125q-0.1875 0.359375 -0.453125 0.984375q-0.25 0.625 -0.6875 1.625l-1.25 -0.328125l0 -3.125l2.546875 -1.53125q1.25 -0.765625 2.65625 -1.203125q1.421875 -0.4375 2.953125 -0.4375zm-5.953125 16.421875q0 1.828125 1.15625 2.890625q1.15625 1.046875 2.59375 1.046875q0.8125 0 1.671875 -0.375q0.875 -0.390625 1.875 -1.0625q1.109375 -0.78125 1.703125 -1.34375q0.609375 -0.578125 0.890625 -1.015625l0 -6.328125q-2.78125 0.375 -4.921875 0.953125q-2.125 0.578125 -3.09375 1.34375q-0.953125 0.71875 -1.421875 1.796875q-0.453125 1.078125 -0.453125 2.09375zm27.375 1.0q0 1.5 0.0625 2.203125q0.078125 0.6875 0.265625 0.921875q0.34375 0.4375 1.921875 0.53125l2.5 0.140625l0 1.4375q-0.71875 0 -1.640625 -0.03125q-0.90625 -0.015625 -1.84375 -0.046875q-0.9375 -0.015625 -1.8125 -0.046875q-0.859375 -0.015625 -1.46875 -0.015625q-0.671875 0 -1.5 0.015625q-0.8125 0.03125 -1.625 0.046875q-0.8125 0.03125 -1.5625 0.046875q-0.75 0.03125 -1.3125 0.03125l0 -1.4375l2.15625 -0.140625q0.46875 -0.046875 0.90625 -0.140625q0.4375 -0.109375 0.625 -0.4375q0.234375 -0.390625 0.25 -1.34375q0.03125 -0.953125 0.03125 -1.6875l0 -10.9375q0 -2.25 -0.375 -2.734375q-0.34375 -0.484375 -1.640625 -0.484375l-1.859375 0l0 -1.34375q2.15625 -0.234375 4.125 -0.8125q1.96875 -0.578125 3.359375 -1.15625l0.4375 0.203125l0 4.84375l0.09375 0l2.59375 -3.078125q0.953125 -1.09375 2.046875 -1.53125q1.109375 -0.4375 1.984375 -0.4375q0.515625 0 1.1875 0.15625q0.671875 0.140625 1.015625 0.375l-0.4375 5.765625l-1.0 0q-0.390625 -0.875 -1.1875 -1.546875q-0.78125 -0.671875 -2.078125 -0.671875q-0.8125 0 -1.5625 0.421875q-0.75 0.40625 -1.265625 0.96875q-0.53125 0.625 -0.96875 1.609375q-0.421875 0.984375 -0.421875 2.28125l0 8.0625zm21.538208 -17.421875q2.3125 0 3.765625 0.53125q1.46875 0.53125 2.34375 1.625q0.8125 1.0625 1.234375 2.796875q0.4375 1.71875 0.4375 4.40625l0 8.734375q0 2.359375 0.34375 2.6875q0.28125 0.296875 1.046875 0.34375l1.828125 0.09375l0 1.4375q-0.8125 -0.046875 -1.84375 -0.09375q-1.03125 -0.046875 -1.703125 -0.046875q-0.78125 0 -1.890625 0.046875q-1.09375 0.046875 -1.859375 0.09375l0.234375 -4.078125l-5.953125 4.125q-0.375 0.25 -1.03125 0.3125q-0.640625 0.078125 -1.171875 0.078125q-2.453125 0 -4.15625 -1.4375q-1.703125 -1.4375 -1.703125 -4.375q0 -1.4375 0.4375 -2.640625q0.4375 -1.203125 1.46875 -2.15625q1.03125 -0.953125 2.703125 -1.671875q1.6875 -0.734375 4.171875 -1.15625l5.234375 -0.96875l0 -0.140625q0 -2.734375 -1.4375 -4.359375q-1.4375 -1.640625 -4.65625 -1.640625q-1.203125 0 -1.828125 0.125q-0.609375 0.109375 -1.0 0.40625q-0.234375 0.140625 -0.40625 0.359375q-0.171875 0.21875 -0.375 0.578125q-0.1875 0.359375 -0.453125 0.984375q-0.25 0.625 -0.6875 1.625l-1.25 -0.328125l0 -3.125l2.546875 -1.53125q1.25 -0.765625 2.65625 -1.203125q1.421875 -0.4375 2.953125 -0.4375zm-5.953125 16.421875q0 1.828125 1.15625 2.890625q1.15625 1.046875 2.59375 1.046875q0.8125 0 1.671875 -0.375q0.875 -0.390625 1.875 -1.0625q1.109375 -0.78125 1.703125 -1.34375q0.609375 -0.578125 0.890625 -1.015625l0 -6.328125q-2.78125 0.375 -4.921875 0.953125q-2.125 0.578125 -3.09375 1.34375q-0.953125 0.71875 -1.421875 1.796875q-0.453125 1.078125 -0.453125 2.09375zm27.375 -28.375l0 29.421875q0 0.875 0.046875 1.78125q0.046875 0.90625 0.28125 1.296875q0.1875 0.28125 0.5625 0.390625q0.390625 0.09375 0.875 0.140625l2.21875 0.140625l0 1.4375q-0.53125 0 -1.3125 -0.03125q-0.765625 -0.015625 -1.609375 -0.046875q-0.828125 -0.015625 -1.65625 -0.046875q-0.8125 -0.015625 -1.421875 -0.015625q-0.671875 0 -1.5 0.015625q-0.8125 0.03125 -1.625 0.046875q-0.8125 0.03125 -1.5625 0.046875q-0.75 0.03125 -1.3125 0.03125l0 -1.4375l2.15625 -0.140625q0.46875 -0.046875 0.90625 -0.140625q0.4375 -0.109375 0.625 -0.4375q0.234375 -0.390625 0.25 -1.34375q0.03125 -0.953125 0.03125 -1.6875l0 -24.515625q0 -1.25 -0.28125 -1.734375q-0.28125 -0.4375 -1.0625 -0.4375l-2.53125 0l0 -1.34375q2.296875 -0.328125 4.1875 -0.75q1.90625 -0.4375 3.296875 -1.015625l0.4375 0.375zm13.968079 0l0 29.421875q0 0.875 0.046875 1.78125q0.046875 0.90625 0.28125 1.296875q0.1875 0.28125 0.5625 0.390625q0.390625 0.09375 0.875 0.140625l2.21875 0.140625l0 1.4375q-0.53125 0 -1.3125 -0.03125q-0.765625 -0.015625 -1.609375 -0.046875q-0.828125 -0.015625 -1.65625 -0.046875q-0.8125 -0.015625 -1.421875 -0.015625q-0.671875 0 -1.5 0.015625q-0.8125 0.03125 -1.625 0.046875q-0.8125 0.03125 -1.5625 0.046875q-0.75 0.03125 -1.3125 0.03125l0 -1.4375l2.15625 -0.140625q0.46875 -0.046875 0.90625 -0.140625q0.4375 -0.109375 0.625 -0.4375q0.234375 -0.390625 0.25 -1.34375q0.03125 -0.953125 0.03125 -1.6875l0 -24.515625q0 -1.25 -0.28125 -1.734375q-0.28125 -0.4375 -1.0625 -0.4375l-2.53125 0l0 -1.34375q2.296875 -0.328125 4.1875 -0.75q1.90625 -0.4375 3.296875 -1.015625l0.4375 0.375zm17.327393 11.953125q1.71875 0 3.375 0.53125q1.65625 0.53125 2.921875 1.640625q1.28125 1.09375 2.046875 2.75q0.765625 1.65625 0.765625 3.96875q0 0.71875 -0.03125 1.203125q-0.015625 0.46875 -0.0625 0.703125q-2.296875 0.390625 -4.609375 0.53125q-2.296875 0.140625 -3.890625 0.140625l-7.1875 0q0 4.234375 2.125 6.859375q2.140625 2.609375 6.5625 2.609375q1.671875 0 3.109375 -0.6875q1.4375 -0.703125 2.84375 -1.578125l0.609375 0.484375l-0.8125 1.390625q-0.140625 0.234375 -0.21875 0.34375q-0.0625 0.09375 -0.203125 0.1875q-0.203125 0.140625 -1.0 0.59375q-0.78125 0.453125 -1.890625 0.84375q-1.140625 0.4375 -2.296875 0.6875q-1.15625 0.265625 -2.265625 0.265625q-2.578125 0 -4.65625 -0.796875q-2.0625 -0.78125 -3.484375 -2.21875q-1.40625 -1.4375 -2.15625 -3.5q-0.734375 -2.0625 -0.734375 -4.609375q0 -2.265625 0.359375 -3.8125q0.359375 -1.5625 0.859375 -2.59375q0.5 -1.03125 1.046875 -1.609375q0.5625 -0.578125 0.953125 -0.921875q1.484375 -1.25 2.53125 -1.765625q1.0625 -0.53125 2.265625 -1.015625q0.953125 -0.375 1.703125 -0.5q0.75 -0.125 1.421875 -0.125zm-6.578125 9.5625q1.578125 0.1875 3.015625 0.234375q1.4375 0.046875 3.078125 0.046875q1.203125 0 2.703125 -0.015625q1.515625 -0.03125 2.625 -0.125q0 -1.59375 -0.296875 -3.046875q-0.28125 -1.46875 -0.890625 -2.59375q-0.59375 -1.125 -1.578125 -1.796875q-0.984375 -0.671875 -2.375 -0.671875q-1.15625 0 -2.28125 0.40625q-1.125 0.40625 -2.015625 1.296875q-0.890625 0.875 -1.4375 2.296875q-0.546875 1.421875 -0.546875 3.4375l0 0.53125zm26.210815 -21.515625l0 29.421875q0 0.875 0.046875 1.78125q0.046875 0.90625 0.28125 1.296875q0.1875 0.28125 0.5625 0.390625q0.390625 0.09375 0.875 0.140625l2.21875 0.140625l0 1.4375q-0.53125 0 -1.3125 -0.03125q-0.765625 -0.015625 -1.609375 -0.046875q-0.828125 -0.015625 -1.65625 -0.046875q-0.8125 -0.015625 -1.421875 -0.015625q-0.671875 0 -1.5 0.015625q-0.8125 0.03125 -1.625 0.046875q-0.8125 0.03125 -1.5625 0.046875q-0.75 0.03125 -1.3125 0.03125l0 -1.4375l2.15625 -0.140625q0.46875 -0.046875 0.90625 -0.140625q0.4375 -0.109375 0.625 -0.4375q0.234375 -0.390625 0.25 -1.34375q0.03125 -0.953125 0.03125 -1.6875l0 -24.515625q0 -1.25 -0.28125 -1.734375q-0.28125 -0.4375 -1.0625 -0.4375l-2.53125 0l0 -1.34375q2.296875 -0.328125 4.1875 -0.75q1.90625 -0.4375 3.296875 -1.015625l0.4375 0.375zm11.702393 1.5q1.15625 0 1.921875 0.859375q0.765625 0.859375 0.765625 1.828125q0 0.90625 -0.765625 1.78125q-0.765625 0.859375 -1.921875 0.859375q-1.15625 0 -1.90625 -0.84375q-0.734375 -0.84375 -0.734375 -1.796875q0 -0.96875 0.734375 -1.828125q0.75 -0.859375 1.90625 -0.859375zm2.265625 10.65625l0 17.265625q0 0.875 0.046875 1.78125q0.046875 0.90625 0.28125 1.296875q0.1875 0.28125 0.5625 0.390625q0.390625 0.09375 0.875 0.140625l2.21875 0.140625l0 1.4375q-0.53125 0 -1.3125 -0.03125q-0.765625 -0.015625 -1.609375 -0.046875q-0.828125 -0.015625 -1.65625 -0.046875q-0.8125 -0.015625 -1.421875 -0.015625q-0.671875 0 -1.5 0.015625q-0.8125 0.03125 -1.625 0.046875q-0.8125 0.03125 -1.5625 0.046875q-0.75 0.03125 -1.3125 0.03125l0 -1.4375l2.15625 -0.140625q0.46875 -0.046875 0.90625 -0.140625q0.4375 -0.109375 0.625 -0.4375q0.234375 -0.390625 0.25 -1.34375q0.03125 -0.953125 0.03125 -1.6875l0 -10.890625q0 -2.296875 -0.375 -2.78125q-0.34375 -0.484375 -1.640625 -0.484375l-1.859375 0l0 -1.34375q2.15625 -0.234375 4.140625 -0.8125q2.0 -0.578125 3.34375 -1.15625l0.4375 0.203125zm15.733643 -0.203125q1.6875 0 3.234375 0.34375q1.5625 0.328125 2.953125 0.859375q-0.09375 1.25 -0.140625 2.546875q-0.046875 1.296875 -0.09375 2.875l-1.34375 0l0 -1.09375q0 -1.828125 -1.875 -2.984375q-0.90625 -0.53125 -1.875 -0.734375q-0.953125 -0.21875 -1.8125 -0.21875q-4.703125 0 -4.703125 3.875q0 1.59375 1.234375 2.453125q1.25 0.859375 3.75 1.296875q1.96875 0.34375 3.546875 0.78125q1.59375 0.421875 2.71875 1.09375q1.125 0.671875 1.75 1.703125q0.625 1.03125 0.625 2.609375q0 2.0625 -0.96875 3.578125q-0.953125 1.515625 -2.46875 2.53125q-1.5 1.0 -3.40625 1.46875q-1.890625 0.484375 -3.765625 0.484375q-1.71875 0 -3.328125 -0.265625q-1.609375 -0.25 -3.390625 -0.875q0.390625 -1.59375 0.453125 -3.3125q0.078125 -1.734375 0.078125 -3.359375l1.4375 0l0 2.015625q0 1.0 0.5 1.75q0.515625 0.734375 1.375 1.25q0.859375 0.5 1.96875 0.765625q1.109375 0.265625 2.34375 0.265625q1.203125 0 2.234375 -0.328125q1.03125 -0.34375 1.78125 -0.9375q0.75 -0.609375 1.171875 -1.390625q0.4375 -0.796875 0.4375 -1.71875q0 -0.8125 -0.265625 -1.390625q-0.265625 -0.578125 -0.625 -0.9375q-0.359375 -0.359375 -0.75 -0.546875q-0.375 -0.1875 -0.671875 -0.296875q-3.453125 -0.8125 -5.59375 -1.40625q-2.125 -0.609375 -3.28125 -1.421875q-1.203125 -0.8125 -1.734375 -1.859375q-0.515625 -1.0625 -0.515625 -2.453125q0 -1.828125 0.71875 -3.140625q0.71875 -1.328125 1.9375 -2.1875q1.21875 -0.875 2.84375 -1.28125q1.640625 -0.40625 3.515625 -0.40625zm32.78955 17.46875q0 0.875 0.046875 1.78125q0.046875 0.90625 0.28125 1.296875q0.203125 0.28125 0.578125 0.390625q0.390625 0.09375 0.875 0.140625l2.203125 0.140625l0 1.4375q-0.53125 0 -1.296875 -0.03125q-0.765625 -0.015625 -1.609375 -0.046875q-0.84375 -0.015625 -1.65625 -0.046875q-0.8125 -0.015625 -1.4375 -0.015625q-0.671875 0 -1.5 0.015625q-0.8125 0.03125 -1.625 0.046875q-0.8125 0.03125 -1.5625 0.046875q-0.734375 0.03125 -1.3125 0.03125l0 -1.4375l2.15625 -0.140625q0.484375 -0.046875 0.90625 -0.140625q0.4375 -0.109375 0.625 -0.4375q0.25 -0.390625 0.265625 -1.34375q0.03125 -0.953125 0.03125 -1.6875l0 -8.390625q0 -2.734375 -1.1875 -4.4375q-1.171875 -1.703125 -3.328125 -1.703125q-1.0 0 -2.015625 0.359375q-1.015625 0.359375 -1.875 1.03125q-0.953125 0.71875 -1.484375 1.53125q-0.53125 0.8125 -0.53125 1.625l0 9.984375q0 0.875 0.046875 1.78125q0.046875 0.90625 0.296875 1.296875q0.1875 0.28125 0.5625 0.390625q0.390625 0.09375 0.875 0.140625l2.015625 0.140625l0 1.4375q-0.53125 0 -1.28125 -0.03125q-0.734375 -0.015625 -1.53125 -0.046875q-0.796875 -0.015625 -1.59375 -0.046875q-0.78125 -0.015625 -1.40625 -0.015625q-0.671875 0 -1.484375 0.015625q-0.8125 0.03125 -1.640625 0.046875q-0.8125 0.03125 -1.5625 0.046875q-0.734375 0.03125 -1.3125 0.03125l0 -1.4375l2.15625 -0.140625q0.484375 -0.046875 0.90625 -0.140625q0.4375 -0.109375 0.640625 -0.4375q0.234375 -0.390625 0.25 -1.34375q0.03125 -0.953125 0.03125 -1.6875l0 -10.84375q0 -2.34375 -0.375 -2.828125q-0.203125 -0.234375 -0.59375 -0.359375q-0.375 -0.125 -1.1875 -0.125l-1.734375 0l0 -1.34375q2.171875 -0.234375 4.15625 -0.8125q2.0 -0.578125 3.34375 -1.15625l0.421875 0.203125l0 4.078125l3.265625 -3.03125q0.96875 -0.90625 2.15625 -1.078125q1.203125 -0.171875 2.109375 -0.171875q2.171875 0 3.890625 1.078125q1.734375 1.078125 2.6875 3.390625l3.65625 -3.265625q0.53125 -0.484375 1.4375 -0.84375q0.90625 -0.359375 2.734375 -0.359375q3.171875 0 5.0625 2.140625q1.90625 2.140625 1.90625 5.59375l0 10.03125q0 1.25 0.0625 1.90625q0.078125 0.640625 0.265625 0.875q0.09375 0.1875 0.421875 0.34375q0.34375 0.140625 1.015625 0.1875l2.265625 0.140625l0 1.4375q-0.34375 0 -0.90625 -0.03125q-0.546875 -0.015625 -1.140625 -0.046875q-0.59375 -0.015625 -1.203125 -0.046875q-0.59375 -0.015625 -1.03125 -0.015625q-0.90625 0 -2.015625 0.046875q-1.109375 0.046875 -1.78125 0.09375l0 -13.625q0 -1.203125 -0.265625 -2.328125q-0.25 -1.125 -0.828125 -1.9375q-0.578125 -0.828125 -1.421875 -1.328125q-0.84375 -0.5 -1.984375 -0.5q-2.0625 0 -3.9375 1.4375q-0.96875 0.71875 -1.46875 1.5625q-0.5 0.828125 -0.5 1.453125l0 10.078125z" fill-rule="nonzero"/></g></svg>