<svg version="1.1" viewBox="0.0 0.0 1500.0 700.0" fill="none" stroke="none" stroke-linecap="square" stroke-miterlimit="10" xmlns:xlink="http://www.w3.org/1999/xlink" xmlns="http://www.w3.org/2000/svg"><clipPath id="p.0"><path d="m0 0l1500.0 0l0 700.0l-1500.0 0l0 -700.0z" clip-rule="nonzero"/></clipPath><g clip-path="url(#p.0)"><path fill="#000000" fill-opacity="0.0" d="m0 0l1500.0 0l0 700.0l-1500.0 0z" fill-rule="evenodd"/><path fill="#ffffff" d="m475.0381 146.26772l79.1181 0l0 79.11812l-79.1181 0z" fill-rule="evenodd"/><path stroke="#000000" stroke-width="2.0" stroke-linejoin="round" stroke-linecap="butt" d="m475.0381 146.26772l79.1181 0l0 79.11812l-79.1181 0z" fill-rule="evenodd"/><path fill="#ffffff" d="m715.63837 240.51968l0 0c0 -18.890747 15.313965 -34.204727 34.204712 -34.204727l0 0c9.071716 0 17.77179 3.6036987 24.186401 10.018341c6.414673 6.414627 10.018372 15.114731 10.018372 24.186386l0 0c0 18.890747 -15.314026 34.204712 -34.204773 34.204712l0 0c-18.890747 0 -34.204712 -15.313965 -34.204712 -34.204712z" fill-rule="evenodd"/><path stroke="#000000" stroke-width="2.0" stroke-linejoin="round" stroke-linecap="butt" d="m715.63837 240.51968l0 0c0 -18.890747 15.313965 -34.204727 34.204712 -34.204727l0 0c9.071716 0 17.77179 3.6036987 24.186401 10.018341c6.414673 6.414627 10.018372 15.114731 10.018372 24.186386l0 0c0 18.890747 -15.314026 34.204712 -34.204773 34.204712l0 0c-18.890747 0 -34.204712 -15.313965 -34.204712 -34.204712z" fill-rule="evenodd"/><path fill="#ffffff" d="m475.0381 255.71654l79.1181 0l0 79.11812l-79.1181 0z" fill-rule="evenodd"/><path stroke="#000000" stroke-width="2.0" stroke-linejoin="round" stroke-linecap="butt" d="m475.0381 255.71654l79.1181 0l0 79.11812l-79.1181 0z" fill-rule="evenodd"/><path fill="#ffffff" d="m475.0381 365.16534l79.1181 0l0 79.11813l-79.1181 0z" fill-rule="evenodd"/><path stroke="#000000" stroke-width="2.0" stroke-linejoin="round" stroke-linecap="butt" d="m475.0381 365.16534l79.1181 0l0 79.11813l-79.1181 0z" fill-rule="evenodd"/><path fill="#ffffff" d="m715.63837 349.9685l0 0c0 -18.890747 15.313965 -34.204712 34.204712 -34.204712l0 0c9.071716 0 17.77179 3.6036987 24.186401 10.018311c6.414673 6.4146423 10.018372 15.114746 10.018372 24.186401l0 0c0 18.890747 -15.314026 34.204712 -34.204773 34.204712l0 0c-18.890747 0 -34.204712 -15.313965 -34.204712 -34.204712z" fill-rule="evenodd"/><path stroke="#000000" stroke-width="2.0" stroke-linejoin="round" stroke-linecap="butt" d="m715.63837 349.9685l0 0c0 -18.890747 15.313965 -34.204712 34.204712 -34.204712l0 0c9.071716 0 17.77179 3.6036987 24.186401 10.018311c6.414673 6.4146423 10.018372 15.114746 10.018372 24.186401l0 0c0 18.890747 -15.314026 34.204712 -34.204773 34.204712l0 0c-18.890747 0 -34.204712 -15.313965 -34.204712 -34.204712z" fill-rule="evenodd"/><path fill="#ffffff" d="m715.63837 459.41733l0 0c0 -18.890747 15.313965 -34.204742 34.204712 -34.204742l0 0c9.071716 0 17.77179 3.6037292 24.186401 10.018341c6.414673 6.4146423 10.018372 15.114746 10.018372 24.186401l0 0c0 18.890747 -15.314026 34.204712 -34.204773 34.204712l0 0c-18.890747 0 -34.204712 -15.313965 -34.204712 -34.204712z" fill-rule="evenodd"/><path stroke="#000000" stroke-width="2.0" stroke-linejoin="round" stroke-linecap="butt" d="m715.63837 459.41733l0 0c0 -18.890747 15.313965 -34.204742 34.204712 -34.204742l0 0c9.071716 0 17.77179 3.6037292 24.186401 10.018341c6.414673 6.4146423 10.018372 15.114746 10.018372 24.186401l0 0c0 18.890747 -15.314026 34.204712 -34.204773 34.204712l0 0c-18.890747 0 -34.204712 -15.313965 -34.204712 -34.204712z" fill-rule="evenodd"/><path fill="#000000" fill-opacity="0.0" d="m554.1562 185.82677c40.37091 0 60.556763 13.67717 80.74176 27.35434c20.185059 13.677155 40.369324 27.354324 80.73859 27.354324" fill-rule="evenodd"/><path stroke="#000000" stroke-width="2.0" stroke-linejoin="round" stroke-linecap="butt" d="m554.1562 185.82677c40.37091 0 60.556763 13.67717 80.74176 27.35434c10.092529 6.8385773 20.184875 13.677155 32.800232 18.806091c6.307617 2.5644684 13.246094 4.701538 21.130615 6.1974792c3.9423828 0.7479706 8.121155 1.3356628 12.575989 1.7363586c0.55682373 0.050079346 1.118042 0.09725952 1.6835327 0.14144897l0.55584717 0.041809082" fill-rule="evenodd"/><path fill="#000000" stroke="#000000" stroke-width="2.0" stroke-linecap="butt" d="m703.5255 243.40561l9.189026 -2.9752197l-8.951599 -3.6274414z" fill-rule="evenodd"/><path fill="#000000" fill-opacity="0.0" d="m554.1562 295.2756c40.37091 0 60.556763 13.677155 80.74176 27.35431c20.185059 13.677185 40.369324 27.35434 80.73859 27.35434" fill-rule="evenodd"/><path stroke="#000000" stroke-width="2.0" stroke-linejoin="round" stroke-linecap="butt" d="m554.1562 295.2756c40.37091 0 60.556763 13.677155 80.74176 27.35431c10.092529 6.8385925 20.184875 13.677185 32.800232 18.806122c6.307617 2.5644531 13.246094 4.7015076 21.130615 6.1974487c3.9423828 0.74798584 8.121155 1.3356628 12.575989 1.7363586c0.55682373 0.050109863 1.118042 0.09725952 1.6835327 0.14144897l0.55584717 0.041809082" fill-rule="evenodd"/><path fill="#000000" stroke="#000000" stroke-width="2.0" stroke-linecap="butt" d="m703.5255 352.85443l9.189026 -2.9752197l-8.951599 -3.6274414z" fill-rule="evenodd"/><path fill="#000000" fill-opacity="0.0" d="m554.1562 514.1732c40.37091 0 60.556763 -13.685028 80.74176 -27.370056c20.185059 -13.685059 40.369324 -27.370087 80.73859 -27.370087" fill-rule="evenodd"/><path stroke="#000000" stroke-width="2.0" stroke-linejoin="round" stroke-linecap="butt" d="m554.1562 514.1732c40.37091 0 60.556763 -13.685028 80.74176 -27.370056c10.092529 -6.8425293 20.184875 -13.685059 32.800232 -18.816956c6.307617 -2.565918 13.246094 -4.7042236 21.130615 -6.2010193c3.9423828 -0.7484131 8.121155 -1.3364563 12.575989 -1.7373657c0.55682373 -0.050109863 1.118042 -0.09732056 1.6835327 -0.14154053l0.55596924 -0.041809082" fill-rule="evenodd"/><path fill="#000000" stroke="#000000" stroke-width="2.0" stroke-linecap="butt" d="m703.763 463.1658l8.951538 -3.6276245l-9.189087 -2.9750366z" fill-rule="evenodd"/><path fill="#ffffff" d="m945.8425 310.40945l79.118164 0l0 79.1181l-79.118164 0z" fill-rule="evenodd"/><path stroke="#000000" stroke-width="2.0" stroke-linejoin="round" stroke-linecap="butt" d="m945.8425 310.40945l79.118164 0l0 79.1181l-79.118164 0z" fill-rule="evenodd"/><path fill="#000000" fill-opacity="0.0" d="m784.04785 240.51968c40.44879 0 60.673218 27.362213 80.897644 54.724396c20.224365 27.362213 40.44879 54.724426 80.89758 54.724426" fill-rule="evenodd"/><path stroke="#000000" stroke-width="2.0" stroke-linejoin="round" stroke-linecap="butt" d="m784.0478 240.51968c40.448853 0 60.67328 27.362213 80.897644 54.724396c10.112244 13.681122 20.224426 27.362213 32.864685 37.623047c6.3201294 5.1304016 13.272217 9.405762 21.172424 12.398499c3.9501343 1.4963379 8.137207 2.6720886 12.600769 3.4737244c0.55792236 0.10018921 1.1201782 0.19454956 1.6868896 0.28295898l0.60339355 0.09063721" fill-rule="evenodd"/><path fill="#000000" stroke="#000000" stroke-width="2.0" stroke-linecap="butt" d="m933.6381 352.408l9.288635 -2.6479492l-8.817566 -3.9421692z" fill-rule="evenodd"/><path fill="#000000" fill-opacity="0.0" d="m784.04785 349.9685c40.44879 0 60.673218 0.01574707 80.897644 0.03149414c20.224365 0.01574707 40.44879 0.03149414 80.89758 0.03149414" fill-rule="evenodd"/><path stroke="#000000" stroke-width="2.0" stroke-linejoin="round" stroke-linecap="butt" d="m784.0478 349.9685c40.448853 0 60.67328 0.01574707 80.897644 0.03149414c10.112244 0.007873535 20.224426 0.01574707 32.864685 0.02166748c6.3201294 0.0029296875 13.272217 0.0054016113 21.172424 0.0071105957l14.860535 0.0015258789" fill-rule="evenodd"/><path fill="#000000" stroke="#000000" stroke-width="2.0" stroke-linecap="butt" d="m933.8428 353.33374l9.076538 -3.3025513l-9.075867 -3.3043518z" fill-rule="evenodd"/><path fill="#000000" fill-opacity="0.0" d="m784.04785 459.41733c40.44879 0 60.673218 -27.362213 80.897644 -54.724426c20.224365 -27.362183 40.44879 -54.724396 80.89758 -54.724396" fill-rule="evenodd"/><path stroke="#000000" stroke-width="2.0" stroke-linejoin="round" stroke-linecap="butt" d="m784.0478 459.41733c40.448853 0 60.67328 -27.362213 80.897644 -54.724426c10.112244 -13.681091 20.224426 -27.362183 32.864685 -37.623016c6.3201294 -5.1304016 13.272217 -9.405762 21.172424 -12.398499c3.9501343 -1.4963684 8.137207 -2.6720886 12.600769 -3.4737244c0.55792236 -0.10018921 1.1201782 -0.19454956 1.6868896 -0.28295898l0.60339355 -0.09063721" fill-rule="evenodd"/><path fill="#000000" stroke="#000000" stroke-width="2.0" stroke-linecap="butt" d="m934.1092 354.11914l8.817566 -3.9421692l-9.288635 -2.6479492z" fill-rule="evenodd"/><path fill="#ffffff" d="m475.56302 36.818897l79.11813 0l0 79.1181l-79.11813 0z" fill-rule="evenodd"/><path stroke="#000000" stroke-width="2.0" stroke-linejoin="round" stroke-linecap="butt" d="m475.56302 36.818897l79.11813 0l0 79.1181l-79.11813 0z" fill-rule="evenodd"/><path fill="#ffffff" d="m475.0381 474.61417l79.1181 0l0 79.11813l-79.1181 0z" fill-rule="evenodd"/><path stroke="#000000" stroke-width="2.0" stroke-linejoin="round" stroke-linecap="butt" d="m475.0381 474.61417l79.1181 0l0 79.11813l-79.1181 0z" fill-rule="evenodd"/><path fill="#ffffff" d="m475.56302 584.063l79.11813 0l0 79.1181l-79.11813 0z" fill-rule="evenodd"/><path stroke="#000000" stroke-width="2.0" stroke-linejoin="round" stroke-linecap="butt" d="m475.56302 584.063l79.11813 0l0 79.1181l-79.11813 0z" fill-rule="evenodd"/><path fill="#000000" fill-opacity="0.0" d="m554.1562 404.7244c40.37091 0 60.556763 -13.685028 80.74176 -27.370056c20.185059 -13.685059 40.369324 -27.370087 80.73859 -27.370087" fill-rule="evenodd"/><path stroke="#000000" stroke-width="2.0" stroke-linejoin="round" stroke-linecap="butt" d="m554.1562 404.7244c40.37091 0 60.556763 -13.685028 80.74176 -27.370056c10.092529 -6.8425293 20.184875 -13.685059 32.800232 -18.816925c6.307617 -2.5659485 13.246094 -4.704254 21.130615 -6.20105c3.9423828 -0.74838257 8.121155 -1.3364563 12.575989 -1.7373657c0.55682373 -0.050109863 1.118042 -0.09732056 1.6835327 -0.14154053l0.55596924 -0.041809082" fill-rule="evenodd"/><path fill="#000000" stroke="#000000" stroke-width="2.0" stroke-linecap="butt" d="m703.763 353.71698l8.951538 -3.6276245l-9.189087 -2.9750366z" fill-rule="evenodd"/><path fill="#000000" fill-opacity="0.0" d="m554.68115 76.37795c40.23944 0 60.36078 41.039368 80.47888 82.07874c20.118103 41.039368 40.23297 82.078735 80.466 82.078735" fill-rule="evenodd"/><path stroke="#000000" stroke-width="2.0" stroke-linejoin="round" stroke-linecap="butt" d="m554.68115 76.37795c40.23938 0 60.36078 41.039368 80.47888 82.07874c10.059021 20.519684 20.117249 41.039368 32.68988 56.42914c6.286316 7.69487 13.201233 14.107269 21.059143 18.595963c3.928894 2.244339 8.093567 4.0077515 12.533264 5.2100677c0.5549927 0.15028381 1.1142578 0.29180908 1.6779175 0.42442322l0.5751343 0.13024902" fill-rule="evenodd"/><path fill="#000000" stroke="#000000" stroke-width="2.0" stroke-linecap="butt" d="m703.3406 242.53088l9.37854 -2.309494l-8.668884 -4.2592163z" fill-rule="evenodd"/><path fill="#000000" fill-opacity="0.0" d="m554.68115 623.6221c40.23944 0 60.36078 -41.04724 80.47888 -82.09448c20.118103 -41.04727 40.23297 -82.09451 80.466 -82.09451" fill-rule="evenodd"/><path stroke="#000000" stroke-width="2.0" stroke-linejoin="round" stroke-linecap="butt" d="m554.68115 623.6221c40.23938 0 60.36078 -41.04724 80.47888 -82.09448c10.059021 -20.52362 20.117249 -41.04727 32.68988 -56.440002c6.286316 -7.69635 13.201233 -14.109985 21.059143 -18.599518c3.928894 -2.2447815 8.093567 -4.008545 12.533264 -5.21109c0.5549927 -0.15029907 1.1142578 -0.29187012 1.6779175 -0.4244995l0.5751953 -0.13024902" fill-rule="evenodd"/><path fill="#000000" stroke="#000000" stroke-width="2.0" stroke-linecap="butt" d="m704.0503 464.00656l8.668823 -4.2593994l-9.378601 -2.3092957z" fill-rule="evenodd"/></g></svg>